inDegrees=yes
name=ik_Shooting_orientations
DataType=double
version=3
OpenSimVersion=4.3-2021-08-27-4bc7ad9
endheader
time	pelvis_tilt	pelvis_list	pelvis_rotation	pelvis_tx	pelvis_ty	pelvis_tz	hip_flexion_r	hip_adduction_r	hip_rotation_r	knee_angle_r	knee_angle_r_beta	ankle_angle_r	subtalar_angle_r	mtp_angle_r	hip_flexion_l	hip_adduction_l	hip_rotation_l	knee_angle_l	knee_angle_l_beta	ankle_angle_l	subtalar_angle_l	mtp_angle_l	lumbar_extension	lumbar_bending	lumbar_rotation	arm_flex_r	arm_add_r	arm_rot_r	elbow_flex_r	pro_sup_r	wrist_flex_r	wrist_dev_r	arm_flex_l	arm_add_l	arm_rot_l	elbow_flex_l	pro_sup_l	wrist_flex_l	wrist_dev_l
7.39	8.14710931869838	8.125142329145024	62.97926997223997	0	0.9399999999999999	0	44.99998824265224	-9.999999988573334	0	60.00008184673153	1.047198979691545	-4.999999851047217	0	0	44.99998824265224	-9.999999988573334	0	60.00008184673153	1.047198979691545	-4.999999851047217	0	0	-7.920506658331252	1.428754385653037	-0.4094198657210055	49.42799088524136	-1.678764658605944	-57.54640373034138	105.01397899044	45.00000025534067	0	0	0	-14.99586010082065	0	75.00015983058866	45.00000025534067	0	0
7.4	8.172031218582577	8.150852101201741	62.9669296540871	0	0.9399999999999999	0	44.99998858467717	-9.999999988573334	0	60.00008336897285	1.047199006259668	-4.999999851047217	0	0	44.99998858467717	-9.999999988573334	0	60.00008336897285	1.047199006259668	-4.999999851047217	0	0	-7.944064709120184	1.448467402017211	-0.4225625479052362	83.19052090736771	14.60648358227571	-61.07036250397727	149.9949188530127	45.00000025534067	0	0	0	-14.99592770525394	0	75.00016029182159	45.00000025534067	0	0
7.41	8.155839054346073	8.163652083368664	62.93429115962034	0	0.9399999999999999	0	44.99998912014611	-9.999999988573334	0	60.0000859245288	1.047199050862534	-4.999999851047217	0	0	44.99998912014611	-9.999999988573334	0	60.0000859245288	1.047199050862534	-4.999999851047217	0	0	9.660871610469767	3.357751566527844	-1.075126174231132	89.99321350674172	7.01874411646075	-28.59903431849546	149.99867216611	45.00000025534065	0	0	0	-14.99603684804842	0	75.00016101392096	45.00000025534065	0	0
7.42	8.159756794789711	8.202673109862491	62.97080723449747	0	0.9399999999999999	0	44.99998950594198	-9.999999988573334	0	60.00008758523983	1.047199079847409	-4.999999851047217	0	0	44.99998950594198	-9.999999988573334	0	60.00008758523983	1.047199079847409	-4.999999851047217	0	0	5.955497599229718	5.294205804009752	-1.250452110849272	89.99141319118677	16.44832876829007	-16.37907023375022	149.9985292951039	45.00000025534065	0	0	0	-14.99611437377262	0	75.00016153418069	45.00000025534065	0	0
7.43	8.162528780892323	8.200251243399915	62.9883192654031	0	0.9399999999999999	0	44.99998960921506	-9.999999988573334	0	60.00008809492657	1.047199088743121	-4.999999851047217	0	0	44.99998960921506	-9.999999988573334	0	60.00008809492657	1.047199088743121	-4.999999851047217	0	0	-3.050565961188632	2.537285426563185	-0.6323179293354397	89.97592232799073	13.51740786019392	-29.99811991961813	149.9976566527967	45.00000025534064	0	0	0	-14.99613714460485	0	75.00016167344828	45.00000025534064	0	0
7.44	8.160835150181184	8.190010200395461	62.98794691452073	0	0.9399999999999999	0	44.999989960511	-9.999999988573334	0	60.00008982814618	1.047199118993509	-4.999999851047217	0	0	44.999989960511	-9.999999988573334	0	60.00008982814618	1.047199118993509	-4.999999851047217	0	0	-7.996337947551599	1.403870022840271	-0.448448599260949	71.13739229443755	2.132344427999474	-49.01046020707835	149.9934246054574	45.00000025534064	0	0	0	-14.99621365335545	0	75.00016214718387	45.00000025534064	0	0
7.45	8.178357880308628	8.208933782516082	62.98022906169393	0	0.9399999999999999	0	44.9999910077837	-9.999999988573334	0	60.00009501654831	1.04719920954821	-4.999999851047217	0	0	44.9999910077837	-9.999999988573334	0	60.00009501654831	1.04719920954821	-4.999999851047217	0	0	-8.007968504266616	1.395754179480894	-0.4548833448405155	43.7866517882992	-16.8371485555844	-56.07601063960565	111.9712469454091	45.00000025534062	0	0	0	-14.99644704808099	0	75.00016355947021	45.00000025534062	0	0
7.46	8.175658944107377	8.236255302768777	62.97369301652435	0	0.9399999999999999	0	44.99999215953579	-9.999999988573334	0	60.00010064323281	1.04719930775238	-4.999999851047217	0	0	44.99999215953579	-9.999999988573334	0	60.00010064323281	1.04719930775238	-4.999999851047217	0	0	-8.030774132147389	1.3980746384413	-0.4324471636715259	47.35767540925519	-31.58184959796614	-20.01896172288906	26.05474773893911	45.00000025534062	0	0	0	-14.99671444020967	0	75.00016511265153	45.00000025534062	0	0
7.47	8.199861577894689	8.226337256080466	62.96603912731275	0	0.9399999999999999	0	44.99999268119265	-9.999999988573334	0	60.00010318182988	1.047199352059257	-4.999999851047217	0	0	44.99999268119265	-9.999999988573334	0	60.00010318182988	1.047199352059257	-4.999999851047217	0	0	-8.006962175303235	1.442583256548343	-0.4391767988740706	18.58308492960136	-17.66159721404878	-8.554712944148084	0.003657824405464436	45.00000025534061	0	0	0	-14.99684017536253	0	75.00016581612583	45.00000025534061	0	0
7.48	8.188661236755935	8.249986543442111	62.97053835301885	0	0.9399999999999999	0	44.99999287757321	-9.999999988573334	0	60.0001041439976	1.047199368852252	-4.999999851047217	0	0	44.99999287757321	-9.999999988573334	0	60.0001041439976	1.047199368852252	-4.999999851047217	0	0	-8.044707702316369	1.402071108750208	-0.4386519071925462	-23.27320375304734	-3.463292472554282	-4.924315219818963	0.001570252296903617	45.0000002553406	0	0	0	-14.99688961375584	0	75.0001660809527	45.0000002553406	0	0
7.49	8.20737185053909	8.259916263157786	62.96337873110657	0	0.9399999999999999	0	44.99999396140591	-9.999999988573334	0	60.00010939085846	1.047199460427249	-4.999999851047217	0	0	44.99999396140591	-9.999999988573334	0	60.00010939085846	1.047199460427249	-4.999999851047217	0	0	-8.040381363115726	1.40883596625643	-0.4574939776865712	55.09679327118545	17.96030019670724	-17.5027557001481	93.83034906531057	45.00000025534059	0	0	0	-14.99715976310432	0	75.00016754254308	45.00000025534059	0	0
7.5	8.187756698931484	8.286562968330264	62.95763861959246	0	0.9399999999999999	0	44.99999473411878	-9.999999988573334	0	60.00011323776105	1.047199527568366	-4.999999851047217	0	0	44.99999473411878	-9.999999988573334	0	60.00011323776105	1.047199527568366	-4.999999851047217	0	0	-8.074297031600997	1.392426304992344	-0.4401326993835055	39.57225606873034	37.48951803171228	-21.62067478070523	0.006281727371687005	45.00000025534059	0	0	0	-14.99737001728196	0	75.00016858457715	45.00000025534059	0	0
7.51	8.194008090573202	8.287127165637251	62.96315638784537	0	0.9399999999999999	0	44.99999505518395	-9.999999988573334	0	60.00011481651341	1.047199555122792	-4.999999851047217	0	0	44.99999505518395	-9.999999988573334	0	60.00011481651341	1.047199555122792	-4.999999851047217	0	0	-8.085389521193919	1.39475235446674	-0.4565024441059931	-6.863530894637836	28.83164163276006	-4.26185234021442	0.002020376049308261	45.00000025534059	0	0	0	-14.99746115723717	0	75.00016901754653	45.00000025534059	0	0
7.52	8.214881956347607	8.289064669722729	62.96770270540936	0	0.9399999999999999	0	44.99999508713283	-9.999999988573334	0	60.00011497503194	1.047199557889463	-4.999999851047217	0	0	44.99999508713283	-9.999999988573334	0	60.00011497503194	1.047199557889463	-4.999999851047217	0	0	-8.082380238482095	1.410723541618106	-0.4632655953784572	9.147704930450891	34.97061113933213	-18.27443213405051	0.002521480438215979	45.00000025534059	0	0	0	-14.99747073938189	0	75.00016906063087	45.00000025534059	0	0
7.53	8.218221613389559	8.301566477697536	62.9624433074052	0	0.9399999999999999	0	44.99999521470324	-9.999999988573334	0	60.00011560155318	1.047199568824321	-4.999999851047217	0	0	44.99999521470324	-9.999999988573334	0	60.00011560155318	1.047199568824321	-4.999999851047217	0	0	-8.098793607928416	1.415592974290684	-0.4620576383526575	54.58051460657335	6.606160878114255	-15.92177438753904	0.9461572292846741	45.00000025534058	0	0	0	-14.99750869837069	0	75.00016923266483	45.00000025534058	0	0
7.54	8.240866215329127	8.298415368701486	62.94988840843153	0	0.9399999999999999	0	44.99999623140946	-9.999999988573334	0	60.00012071645148	1.047199658096137	-4.999999851047217	0	0	44.99999623140946	-9.999999988573334	0	60.00012071645148	1.047199658096137	-4.999999851047217	0	0	-8.089730779139469	1.447869068920643	-0.4477594505284042	53.77110622815953	-5.805722957877059	-12.25096841982115	108.6100823917239	45.00000025534057	0	0	0	-14.99781775687975	0	75.00017060373504	45.00000025534057	0	0
